<svg width="1440" height="1024" viewBox="0 0 1440 1024" fill="none" xmlns="http://www.w3.org/2000/svg">
<g clip-path="url(#clip0_346_478)">
<rect width="1440" height="1024" fill="black"/>
<path d="M6.31602 460V121.6H63.656L175.516 346.26L287.376 121.6H344.716V460H285.026V257.9L186.796 460H164.236L66.006 257.9V460H6.31602ZM438.881 467.05C420.708 467.05 405.276 463.603 392.586 456.71C380.053 449.66 370.496 440.338 363.916 428.745C357.493 416.995 354.281 404.07 354.281 389.97C354.281 378.22 356.083 367.488 359.686 357.775C363.29 348.062 369.086 339.523 377.076 332.16C385.223 324.64 396.111 318.373 409.741 313.36C419.141 309.913 430.343 306.858 443.346 304.195C456.35 301.532 471.076 299.025 487.526 296.675C503.976 294.168 522.071 291.427 541.811 288.45L518.781 301.14C518.781 286.1 515.178 275.055 507.971 268.005C500.765 260.955 488.701 257.43 471.781 257.43C462.381 257.43 452.59 259.702 442.406 264.245C432.223 268.788 425.095 276.857 421.021 288.45L363.211 270.12C369.635 249.127 381.698 232.05 399.401 218.89C417.105 205.73 441.231 199.15 471.781 199.15C494.185 199.15 514.081 202.597 531.471 209.49C548.861 216.383 562.021 228.29 570.951 245.21C575.965 254.61 578.941 264.01 579.881 273.41C580.821 282.81 581.291 293.307 581.291 304.9V460H525.361V407.83L533.351 418.64C520.975 435.717 507.58 448.093 493.166 455.77C478.91 463.29 460.815 467.05 438.881 467.05ZM452.511 416.76C464.261 416.76 474.131 414.723 482.121 410.65C490.268 406.42 496.691 401.642 501.391 396.315C506.248 390.988 509.538 386.523 511.261 382.92C514.551 376.027 516.431 368.037 516.901 358.95C517.528 349.707 517.841 342.03 517.841 335.92L536.641 340.62C517.685 343.753 502.331 346.417 490.581 348.61C478.831 350.647 469.353 352.527 462.146 354.25C454.94 355.973 448.595 357.853 443.111 359.89C436.845 362.397 431.753 365.138 427.836 368.115C424.076 370.935 421.256 374.068 419.376 377.515C417.653 380.962 416.791 384.8 416.791 389.03C416.791 394.827 418.201 399.84 421.021 404.07C423.998 408.143 428.15 411.277 433.476 413.47C438.803 415.663 445.148 416.76 452.511 416.76ZM600.095 460V206.2H656.495V268.24L650.385 260.25C653.675 251.477 658.062 243.487 663.545 236.28C669.028 229.073 675.765 223.12 683.755 218.42C689.865 214.66 696.523 211.762 703.73 209.725C710.937 207.532 718.378 206.2 726.055 205.73C733.732 205.103 741.408 205.26 749.085 206.2V265.89C742.035 263.697 733.81 262.992 724.41 263.775C715.167 264.402 706.785 266.517 699.265 270.12C691.745 273.567 685.4 278.188 680.23 283.985C675.06 289.625 671.143 296.362 668.48 304.195C665.817 311.872 664.485 320.567 664.485 330.28V460H600.095ZM751.016 460L751.486 121.6H816.346V328.4L902.356 206.2H981.316L889.666 333.1L987.426 460H904.236L816.346 337.8V460H751.016ZM1081.89 467.05C1055.89 467.05 1032.93 461.488 1013.04 450.365C993.298 439.085 977.788 423.653 966.508 404.07C955.384 384.33 949.823 361.77 949.823 336.39C949.823 308.66 955.306 284.533 966.273 264.01C977.239 243.487 992.358 227.585 1011.63 216.305C1030.9 204.868 1053.07 199.15 1078.13 199.15C1104.77 199.15 1127.4 205.417 1146.05 217.95C1164.69 230.483 1178.48 248.108 1187.41 270.825C1196.34 293.542 1199.47 320.253 1196.81 350.96H1133.59V327.46C1133.59 301.61 1129.44 283.045 1121.14 271.765C1112.99 260.328 1099.6 254.61 1080.95 254.61C1059.18 254.61 1043.12 261.268 1032.78 274.585C1022.59 287.745 1017.5 307.25 1017.5 333.1C1017.5 356.757 1022.59 375.087 1032.78 388.09C1043.12 400.937 1058.24 407.36 1078.13 407.36C1090.67 407.36 1101.4 404.618 1110.33 399.135C1119.26 393.652 1126.07 385.74 1130.77 375.4L1194.69 393.73C1185.14 416.917 1170.02 434.933 1149.34 447.78C1128.81 460.627 1106.33 467.05 1081.89 467.05ZM997.763 350.96V303.49H1166.02V350.96H997.763ZM1373.65 460V340.15C1373.65 334.353 1373.33 326.99 1372.71 318.06C1372.08 308.973 1370.12 299.887 1366.83 290.8C1363.54 281.713 1358.14 274.115 1350.62 268.005C1343.25 261.895 1332.76 258.84 1319.13 258.84C1313.64 258.84 1307.77 259.702 1301.5 261.425C1295.23 263.148 1289.36 266.517 1283.88 271.53C1278.39 276.387 1273.85 283.593 1270.25 293.15C1266.8 302.707 1265.08 315.397 1265.08 331.22L1228.42 313.83C1228.42 293.777 1232.49 274.977 1240.64 257.43C1248.78 239.883 1261 225.705 1277.3 214.895C1293.75 204.085 1314.43 198.68 1339.34 198.68C1359.23 198.68 1375.45 202.048 1387.98 208.785C1400.51 215.522 1410.23 224.06 1417.12 234.4C1424.17 244.74 1429.18 255.55 1432.16 266.83C1435.14 277.953 1436.94 288.137 1437.57 297.38C1438.19 306.623 1438.51 313.36 1438.51 317.59V460H1373.65ZM1200.22 460V206.2H1257.09V290.33H1265.08V460H1200.22Z" fill="url(#paint0_linear_346_478)"/>
<path d="M327.089 747.75C309.089 747.75 293.547 743.833 280.464 736C267.464 728.167 257.422 717.208 250.339 703.125C243.339 689.042 239.839 672.667 239.839 654C239.839 635.333 243.339 618.958 250.339 604.875C257.422 590.792 267.464 579.833 280.464 572C293.547 564.167 309.089 560.25 327.089 560.25C347.756 560.25 365.089 565.375 379.089 575.625C393.172 585.875 403.089 599.75 408.839 617.25L374.589 626.75C371.256 615.833 365.631 607.375 357.714 601.375C349.797 595.292 339.589 592.25 327.089 592.25C315.672 592.25 306.131 594.792 298.464 599.875C290.881 604.958 285.172 612.125 281.339 621.375C277.506 630.625 275.589 641.5 275.589 654C275.589 666.5 277.506 677.375 281.339 686.625C285.172 695.875 290.881 703.042 298.464 708.125C306.131 713.208 315.672 715.75 327.089 715.75C339.589 715.75 349.797 712.708 357.714 706.625C365.631 700.542 371.256 692.083 374.589 681.25L408.839 690.75C403.089 708.25 393.172 722.125 379.089 732.375C365.089 742.625 347.756 747.75 327.089 747.75ZM491.112 747.75C473.112 747.75 457.571 743.833 444.487 736C431.487 728.167 421.446 717.208 414.362 703.125C407.362 689.042 403.862 672.667 403.862 654C403.862 635.333 407.362 618.958 414.362 604.875C421.446 590.792 431.487 579.833 444.487 572C457.571 564.167 473.112 560.25 491.112 560.25C509.112 560.25 524.612 564.167 537.612 572C550.696 579.833 560.737 590.792 567.737 604.875C574.821 618.958 578.362 635.333 578.362 654C578.362 672.667 574.821 689.042 567.737 703.125C560.737 717.208 550.696 728.167 537.612 736C524.612 743.833 509.112 747.75 491.112 747.75ZM491.112 715.75C502.529 715.917 512.029 713.458 519.612 708.375C527.196 703.292 532.862 696.083 536.612 686.75C540.446 677.417 542.362 666.5 542.362 654C542.362 641.5 540.446 630.667 536.612 621.5C532.862 612.333 527.196 605.208 519.612 600.125C512.029 595.042 502.529 592.417 491.112 592.25C479.696 592.083 470.196 594.542 462.612 599.625C455.029 604.708 449.321 611.917 445.487 621.25C441.737 630.583 439.862 641.5 439.862 654C439.862 666.5 441.737 677.333 445.487 686.5C449.321 695.667 455.029 702.792 462.612 707.875C470.196 712.958 479.696 715.583 491.112 715.75ZM831.255 744V564H865.255V744H831.255ZM880.229 744V564H914.729L992.979 684V564H1027.48V744H992.979L914.729 624V744H880.229ZM1114.86 747.75C1103.53 747.75 1092.73 745.75 1082.48 741.75C1072.23 737.667 1063.15 731.667 1055.23 723.75C1047.4 715.833 1041.19 706.042 1036.61 694.375C1032.11 682.708 1029.86 669.25 1029.86 654C1029.86 634.083 1033.65 617.167 1041.23 603.25C1048.9 589.25 1059.15 578.583 1071.98 571.25C1084.9 563.917 1099.19 560.25 1114.86 560.25C1138.03 560.25 1156.23 565.625 1169.48 576.375C1182.73 587.125 1191.61 602.333 1196.11 622L1161.36 627C1158.11 616.5 1152.78 608.125 1145.36 601.875C1138.03 595.542 1128.61 592.333 1117.11 592.25C1105.69 592.083 1096.19 594.542 1088.61 599.625C1081.03 604.708 1075.32 611.917 1071.48 621.25C1067.73 630.583 1065.86 641.5 1065.86 654C1065.86 666.5 1067.73 677.333 1071.48 686.5C1075.32 695.667 1081.03 702.792 1088.61 707.875C1096.19 712.958 1105.69 715.583 1117.11 715.75C1124.86 715.917 1131.86 714.583 1138.11 711.75C1144.44 708.917 1149.78 704.458 1154.11 698.375C1158.44 692.292 1161.53 684.5 1163.36 675H1134.86V648.75H1199.61C1199.78 649.833 1199.9 651.75 1199.98 654.5C1200.07 657.25 1200.11 658.833 1200.11 659.25C1200.11 676.5 1196.61 691.792 1189.61 705.125C1182.61 718.458 1172.73 728.917 1159.98 736.5C1147.23 744 1132.19 747.75 1114.86 747.75ZM480.495 927.75C467.162 927.75 455.12 925.417 444.37 920.75C433.703 916 424.912 909.25 417.995 900.5C411.162 891.667 406.828 881.167 404.995 869L440.495 863.75C442.995 874.083 448.162 882.042 455.995 887.625C463.828 893.208 472.745 896 482.745 896C488.328 896 493.745 895.125 498.995 893.375C504.245 891.625 508.537 889.042 511.87 885.625C515.287 882.208 516.995 878 516.995 873C516.995 871.167 516.703 869.417 516.12 867.75C515.62 866 514.745 864.375 513.495 862.875C512.245 861.375 510.453 859.958 508.12 858.625C505.87 857.292 502.995 856.083 499.495 855L452.745 841.25C449.245 840.25 445.162 838.833 440.495 837C435.912 835.167 431.453 832.542 427.12 829.125C422.787 825.708 419.162 821.208 416.245 815.625C413.412 809.958 411.995 802.833 411.995 794.25C411.995 782.167 415.037 772.125 421.12 764.125C427.203 756.125 435.328 750.167 445.495 746.25C455.662 742.333 466.912 740.417 479.245 740.5C491.662 740.667 502.745 742.792 512.495 746.875C522.245 750.958 530.412 756.917 536.995 764.75C543.578 772.5 548.328 782 551.245 793.25L514.495 799.5C513.162 793.667 510.703 788.75 507.12 784.75C503.537 780.75 499.245 777.708 494.245 775.625C489.328 773.542 484.162 772.417 478.745 772.25C473.412 772.083 468.37 772.833 463.62 774.5C458.953 776.083 455.12 778.417 452.12 781.5C449.203 784.583 447.745 788.25 447.745 792.5C447.745 796.417 448.953 799.625 451.37 802.125C453.787 804.542 456.828 806.5 460.495 808C464.162 809.5 467.912 810.75 471.745 811.75L502.995 820.25C507.662 821.5 512.828 823.167 518.495 825.25C524.162 827.25 529.578 830.083 534.745 833.75C539.995 837.333 544.287 842.083 547.62 848C551.037 853.917 552.745 861.417 552.745 870.5C552.745 880.167 550.703 888.625 546.62 895.875C542.62 903.042 537.203 909 530.37 913.75C523.537 918.417 515.787 921.917 507.12 924.25C498.537 926.583 489.662 927.75 480.495 927.75ZM631.22 927.75C613.22 927.75 597.678 923.833 584.595 916C571.595 908.167 561.553 897.208 554.47 883.125C547.47 869.042 543.97 852.667 543.97 834C543.97 815.333 547.47 798.958 554.47 784.875C561.553 770.792 571.595 759.833 584.595 752C597.678 744.167 613.22 740.25 631.22 740.25C649.22 740.25 664.72 744.167 677.72 752C690.803 759.833 700.845 770.792 707.845 784.875C714.928 798.958 718.47 815.333 718.47 834C718.47 852.667 714.928 869.042 707.845 883.125C700.845 897.208 690.803 908.167 677.72 916C664.72 923.833 649.22 927.75 631.22 927.75ZM631.22 895.75C642.636 895.917 652.136 893.458 659.72 888.375C667.303 883.292 672.97 876.083 676.72 866.75C680.553 857.417 682.47 846.5 682.47 834C682.47 821.5 680.553 810.667 676.72 801.5C672.97 792.333 667.303 785.208 659.72 780.125C652.136 775.042 642.636 772.417 631.22 772.25C619.803 772.083 610.303 774.542 602.72 779.625C595.136 784.708 589.428 791.917 585.595 801.25C581.845 810.583 579.97 821.5 579.97 834C579.97 846.5 581.845 857.333 585.595 866.5C589.428 875.667 595.136 882.792 602.72 887.875C610.303 892.958 619.803 895.583 631.22 895.75ZM794.423 927.75C776.423 927.75 760.881 923.833 747.798 916C734.798 908.167 724.756 897.208 717.673 883.125C710.673 869.042 707.173 852.667 707.173 834C707.173 815.333 710.673 798.958 717.673 784.875C724.756 770.792 734.798 759.833 747.798 752C760.881 744.167 776.423 740.25 794.423 740.25C812.423 740.25 827.923 744.167 840.923 752C854.006 759.833 864.048 770.792 871.048 784.875C878.131 798.958 881.673 815.333 881.673 834C881.673 852.667 878.131 869.042 871.048 883.125C864.048 897.208 854.006 908.167 840.923 916C827.923 923.833 812.423 927.75 794.423 927.75ZM794.423 895.75C805.84 895.917 815.34 893.458 822.923 888.375C830.506 883.292 836.173 876.083 839.923 866.75C843.756 857.417 845.673 846.5 845.673 834C845.673 821.5 843.756 810.667 839.923 801.5C836.173 792.333 830.506 785.208 822.923 780.125C815.34 775.042 805.84 772.417 794.423 772.25C783.006 772.083 773.506 774.542 765.923 779.625C758.34 784.708 752.631 791.917 748.798 801.25C745.048 810.583 743.173 821.5 743.173 834C743.173 846.5 745.048 857.333 748.798 866.5C752.631 875.667 758.34 882.792 765.923 887.875C773.506 892.958 783.006 895.583 794.423 895.75ZM880.376 924V744H914.876L993.126 864V744H1027.63V924H993.126L914.876 804V924H880.376Z" fill="white"/>
<rect x="587" y="558" width="47.1724" height="180" fill="#FBFF12"/>
<rect x="686.586" y="651.103" width="47.1724" height="86.8966" fill="#FBFF12"/>
<rect x="770.449" y="651.103" width="47.1724" height="86.8966" fill="#FBFF12"/>
<path d="M587 558H634.172L733.759 651.103H686.586L587 558Z" fill="#FBFF12"/>
<path d="M670.861 558H718.034L817.62 651.103H770.448L670.861 558Z" fill="#FBFF12"/>
<rect x="20" y="28" width="18.475" height="64" fill="white"/>
<rect x="59.002" y="61.103" width="18.475" height="30.8966" fill="white"/>
<rect x="91.8496" y="61.103" width="18.475" height="30.8966" fill="white"/>
<path d="M20 28H38.475L77.4777 61.1034H59.0027L20 28Z" fill="white"/>
<path d="M52.8438 28H71.3187L110.321 61.1034H91.8465L52.8438 28Z" fill="white"/>
<path d="M1295.8 989V960.2H1300.68L1310.2 979.32L1319.72 960.2H1324.6V989H1319.52V971.8L1311.16 989H1309.24L1300.88 971.8V989H1295.8ZM1332.61 989.6C1331.07 989.6 1329.75 989.307 1328.67 988.72C1327.61 988.12 1326.79 987.327 1326.23 986.34C1325.69 985.34 1325.41 984.24 1325.41 983.04C1325.41 982.04 1325.57 981.127 1325.87 980.3C1326.18 979.473 1326.67 978.747 1327.35 978.12C1328.05 977.48 1328.97 976.947 1330.13 976.52C1330.93 976.227 1331.89 975.967 1332.99 975.74C1334.1 975.513 1335.35 975.3 1336.75 975.1C1338.15 974.887 1339.69 974.653 1341.37 974.4L1339.41 975.48C1339.41 974.2 1339.11 973.26 1338.49 972.66C1337.88 972.06 1336.85 971.76 1335.41 971.76C1334.61 971.76 1333.78 971.953 1332.91 972.34C1332.05 972.727 1331.44 973.413 1331.09 974.4L1326.17 972.84C1326.72 971.053 1327.75 969.6 1329.25 968.48C1330.76 967.36 1332.81 966.8 1335.41 966.8C1337.32 966.8 1339.01 967.093 1340.49 967.68C1341.97 968.267 1343.09 969.28 1343.85 970.72C1344.28 971.52 1344.53 972.32 1344.61 973.12C1344.69 973.92 1344.73 974.813 1344.73 975.8V989H1339.97V984.56L1340.65 985.48C1339.6 986.933 1338.46 987.987 1337.23 988.64C1336.02 989.28 1334.48 989.6 1332.61 989.6ZM1333.77 985.32C1334.77 985.32 1335.61 985.147 1336.29 984.8C1336.99 984.44 1337.53 984.033 1337.93 983.58C1338.35 983.127 1338.63 982.747 1338.77 982.44C1339.05 981.853 1339.21 981.173 1339.25 980.4C1339.31 979.613 1339.33 978.96 1339.33 978.44L1340.93 978.84C1339.32 979.107 1338.01 979.333 1337.01 979.52C1336.01 979.693 1335.21 979.853 1334.59 980C1333.98 980.147 1333.44 980.307 1332.97 980.48C1332.44 980.693 1332.01 980.927 1331.67 981.18C1331.35 981.42 1331.11 981.687 1330.95 981.98C1330.81 982.273 1330.73 982.6 1330.73 982.96C1330.73 983.453 1330.85 983.88 1331.09 984.24C1331.35 984.587 1331.7 984.853 1332.15 985.04C1332.61 985.227 1333.15 985.32 1333.77 985.32ZM1346.33 989V967.4H1351.13V972.68L1350.61 972C1350.89 971.253 1351.27 970.573 1351.73 969.96C1352.2 969.347 1352.77 968.84 1353.45 968.44C1353.97 968.12 1354.54 967.873 1355.15 967.7C1355.77 967.513 1356.4 967.4 1357.05 967.36C1357.71 967.307 1358.36 967.32 1359.01 967.4V972.48C1358.41 972.293 1357.71 972.233 1356.91 972.3C1356.13 972.353 1355.41 972.533 1354.77 972.84C1354.13 973.133 1353.59 973.527 1353.15 974.02C1352.71 974.5 1352.38 975.073 1352.15 975.74C1351.93 976.393 1351.81 977.133 1351.81 977.96V989H1346.33ZM1359.18 989L1359.22 960.2H1364.74V977.8L1372.06 967.4H1378.78L1370.98 978.2L1379.3 989H1372.22L1364.74 978.6V989H1359.18ZM1387.34 989.6C1385.13 989.6 1383.17 989.127 1381.48 988.18C1379.8 987.22 1378.48 985.907 1377.52 984.24C1376.57 982.56 1376.1 980.64 1376.1 978.48C1376.1 976.12 1376.57 974.067 1377.5 972.32C1378.43 970.573 1379.72 969.22 1381.36 968.26C1383 967.287 1384.89 966.8 1387.02 966.8C1389.29 966.8 1391.21 967.333 1392.8 968.4C1394.39 969.467 1395.56 970.967 1396.32 972.9C1397.08 974.833 1397.35 977.107 1397.12 979.72H1391.74V977.72C1391.74 975.52 1391.39 973.94 1390.68 972.98C1389.99 972.007 1388.85 971.52 1387.26 971.52C1385.41 971.52 1384.04 972.087 1383.16 973.22C1382.29 974.34 1381.86 976 1381.86 978.2C1381.86 980.213 1382.29 981.773 1383.16 982.88C1384.04 983.973 1385.33 984.52 1387.02 984.52C1388.09 984.52 1389 984.287 1389.76 983.82C1390.52 983.353 1391.1 982.68 1391.5 981.8L1396.94 983.36C1396.13 985.333 1394.84 986.867 1393.08 987.96C1391.33 989.053 1389.42 989.6 1387.34 989.6ZM1380.18 979.72V975.68H1394.5V979.72H1380.18ZM1412.17 989V978.8C1412.17 978.307 1412.14 977.68 1412.09 976.92C1412.04 976.147 1411.87 975.373 1411.59 974.6C1411.31 973.827 1410.85 973.18 1410.21 972.66C1409.58 972.14 1408.69 971.88 1407.53 971.88C1407.06 971.88 1406.56 971.953 1406.03 972.1C1405.5 972.247 1405 972.533 1404.53 972.96C1404.06 973.373 1403.68 973.987 1403.37 974.8C1403.08 975.613 1402.93 976.693 1402.93 978.04L1399.81 976.56C1399.81 974.853 1400.16 973.253 1400.85 971.76C1401.54 970.267 1402.58 969.06 1403.97 968.14C1405.37 967.22 1407.13 966.76 1409.25 966.76C1410.94 966.76 1412.32 967.047 1413.39 967.62C1414.46 968.193 1415.28 968.92 1415.87 969.8C1416.47 970.68 1416.9 971.6 1417.15 972.56C1417.4 973.507 1417.56 974.373 1417.61 975.16C1417.66 975.947 1417.69 976.52 1417.69 976.88V989H1412.17ZM1397.41 989V967.4H1402.25V974.56H1402.93V989H1397.41Z" fill="white"/>
</g>
<path d="M20.416 513.72C17.856 513.72 15.544 513.272 13.48 512.376C11.432 511.464 9.744 510.168 8.416 508.488C7.104 506.792 6.272 504.776 5.92 502.44L12.736 501.432C13.216 503.416 14.208 504.944 15.712 506.016C17.216 507.088 18.928 507.624 20.848 507.624C21.92 507.624 22.96 507.456 23.968 507.12C24.976 506.784 25.8 506.288 26.44 505.632C27.096 504.976 27.424 504.168 27.424 503.208C27.424 502.856 27.368 502.52 27.256 502.2C27.16 501.864 26.992 501.552 26.752 501.264C26.512 500.976 26.168 500.704 25.72 500.448C25.288 500.192 24.736 499.96 24.064 499.752L15.088 497.112C14.416 496.92 13.632 496.648 12.736 496.296C11.856 495.944 11 495.44 10.168 494.784C9.336 494.128 8.64 493.264 8.08 492.192C7.536 491.104 7.264 489.736 7.264 488.088C7.264 485.768 7.848 483.84 9.016 482.304C10.184 480.768 11.744 479.624 13.696 478.872C15.648 478.12 17.808 477.752 20.176 477.768C22.56 477.8 24.688 478.208 26.56 478.992C28.432 479.776 30 480.92 31.264 482.424C32.528 483.912 33.44 485.736 34 487.896L26.944 489.096C26.688 487.976 26.216 487.032 25.528 486.264C24.84 485.496 24.016 484.912 23.056 484.512C22.112 484.112 21.12 483.896 20.08 483.864C19.056 483.832 18.088 483.976 17.176 484.296C16.28 484.6 15.544 485.048 14.968 485.64C14.408 486.232 14.128 486.936 14.128 487.752C14.128 488.504 14.36 489.12 14.824 489.6C15.288 490.064 15.872 490.44 16.576 490.728C17.28 491.016 18 491.256 18.736 491.448L24.736 493.08C25.632 493.32 26.624 493.64 27.712 494.04C28.8 494.424 29.84 494.968 30.832 495.672C31.84 496.36 32.664 497.272 33.304 498.408C33.96 499.544 34.288 500.984 34.288 502.728C34.288 504.584 33.896 506.208 33.112 507.6C32.344 508.976 31.304 510.12 29.992 511.032C28.68 511.928 27.192 512.6 25.528 513.048C23.88 513.496 22.176 513.72 20.416 513.72ZM50.7951 513C49.0031 513.336 47.2431 513.48 45.5151 513.432C43.8031 513.4 42.2671 513.104 40.9071 512.544C39.5631 511.968 38.5391 511.048 37.8351 509.784C37.1951 508.6 36.8591 507.4 36.8271 506.184C36.7951 504.952 36.7791 503.56 36.7791 502.008V479.88H43.3071V501.624C43.3071 502.632 43.3151 503.544 43.3311 504.36C43.3631 505.16 43.5311 505.8 43.8351 506.28C44.4111 507.192 45.3311 507.688 46.5951 507.768C47.8591 507.848 49.2591 507.784 50.7951 507.576V513ZM32.3631 492.12V487.08H50.7951V492.12H32.3631ZM52.2513 513V487.08H58.0113V493.416L57.3873 492.6C57.7233 491.704 58.1713 490.888 58.7313 490.152C59.2913 489.416 59.9793 488.808 60.7953 488.328C61.4193 487.944 62.0993 487.648 62.8353 487.44C63.5713 487.216 64.3313 487.08 65.1153 487.032C65.8993 486.968 66.6833 486.984 67.4673 487.08V493.176C66.7473 492.952 65.9073 492.88 64.9473 492.96C64.0033 493.024 63.1473 493.24 62.3793 493.608C61.6113 493.96 60.9633 494.432 60.4353 495.024C59.9073 495.6 59.5073 496.288 59.2353 497.088C58.9633 497.872 58.8273 498.76 58.8273 499.752V513H52.2513ZM74.3969 513.72C72.5409 513.72 70.9649 513.368 69.6689 512.664C68.3889 511.944 67.4129 510.992 66.7409 509.808C66.0849 508.608 65.7569 507.288 65.7569 505.848C65.7569 504.648 65.9409 503.552 66.3089 502.56C66.6769 501.568 67.2689 500.696 68.0849 499.944C68.9169 499.176 70.0289 498.536 71.4209 498.024C72.3809 497.672 73.5249 497.36 74.8529 497.088C76.1809 496.816 77.6849 496.56 79.3649 496.32C81.0449 496.064 82.8929 495.784 84.9089 495.48L82.5569 496.776C82.5569 495.24 82.1889 494.112 81.4529 493.392C80.7169 492.672 79.4849 492.312 77.7569 492.312C76.7969 492.312 75.7969 492.544 74.7569 493.008C73.7169 493.472 72.9889 494.296 72.5729 495.48L66.6689 493.608C67.3249 491.464 68.5569 489.72 70.3649 488.376C72.1729 487.032 74.6369 486.36 77.7569 486.36C80.0449 486.36 82.0769 486.712 83.8529 487.416C85.6289 488.12 86.9729 489.336 87.8849 491.064C88.3969 492.024 88.7009 492.984 88.7969 493.944C88.8929 494.904 88.9409 495.976 88.9409 497.16V513H83.2289V507.672L84.0449 508.776C82.7809 510.52 81.4129 511.784 79.9409 512.568C78.4849 513.336 76.6369 513.72 74.3969 513.72ZM75.7889 508.584C76.9889 508.584 77.9969 508.376 78.8129 507.96C79.6449 507.528 80.3009 507.04 80.7809 506.496C81.2769 505.952 81.6129 505.496 81.7889 505.128C82.1249 504.424 82.3169 503.608 82.3649 502.68C82.4289 501.736 82.4609 500.952 82.4609 500.328L84.3809 500.808C82.4449 501.128 80.8769 501.4 79.6769 501.624C78.4769 501.832 77.5089 502.024 76.7729 502.2C76.0369 502.376 75.3889 502.568 74.8289 502.776C74.1889 503.032 73.6689 503.312 73.2689 503.616C72.8849 503.904 72.5969 504.224 72.4049 504.576C72.2289 504.928 72.1409 505.32 72.1409 505.752C72.1409 506.344 72.2849 506.856 72.5729 507.288C72.8769 507.704 73.3009 508.024 73.8449 508.248C74.3889 508.472 75.0369 508.584 75.7889 508.584ZM106.413 513C104.621 513.336 102.861 513.48 101.133 513.432C99.4213 513.4 97.8853 513.104 96.5253 512.544C95.1813 511.968 94.1573 511.048 93.4533 509.784C92.8133 508.6 92.4773 507.4 92.4453 506.184C92.4133 504.952 92.3973 503.56 92.3973 502.008V479.88H98.9253V501.624C98.9253 502.632 98.9333 503.544 98.9493 504.36C98.9813 505.16 99.1493 505.8 99.4533 506.28C100.029 507.192 100.949 507.688 102.213 507.768C103.477 507.848 104.877 507.784 106.413 507.576V513ZM87.9813 492.12V487.08H106.413V492.12H87.9813ZM118.511 513.72C115.855 513.72 113.511 513.152 111.479 512.016C109.463 510.864 107.879 509.288 106.727 507.288C105.591 505.272 105.023 502.968 105.023 500.376C105.023 497.544 105.583 495.08 106.703 492.984C107.823 490.888 109.367 489.264 111.335 488.112C113.303 486.944 115.567 486.36 118.127 486.36C120.847 486.36 123.159 487 125.063 488.28C126.967 489.56 128.375 491.36 129.287 493.68C130.199 496 130.519 498.728 130.247 501.864H123.791V499.464C123.791 496.824 123.367 494.928 122.519 493.776C121.687 492.608 120.319 492.024 118.415 492.024C116.191 492.024 114.551 492.704 113.495 494.064C112.455 495.408 111.935 497.4 111.935 500.04C111.935 502.456 112.455 504.328 113.495 505.656C114.551 506.968 116.095 507.624 118.127 507.624C119.407 507.624 120.503 507.344 121.415 506.784C122.327 506.224 123.023 505.416 123.503 504.36L130.031 506.232C129.055 508.6 127.511 510.44 125.399 511.752C123.303 513.064 121.007 513.72 118.511 513.72ZM109.919 501.864V497.016H127.103V501.864H109.919ZM142.434 525.24C140.962 525.24 139.562 525 138.234 524.52C136.906 524.056 135.714 523.4 134.658 522.552C133.618 521.72 132.77 520.744 132.114 519.624L138.162 516.696C138.578 517.464 139.17 518.048 139.938 518.448C140.722 518.848 141.57 519.048 142.482 519.048C143.458 519.048 144.378 518.88 145.242 518.544C146.106 518.224 146.794 517.736 147.306 517.08C147.834 516.44 148.082 515.64 148.05 514.68V507.144H148.866V487.08H154.578V514.776C154.578 515.416 154.546 516.016 154.482 516.576C154.434 517.152 154.338 517.72 154.194 518.28C153.778 519.864 153.002 521.168 151.866 522.192C150.746 523.216 149.37 523.976 147.738 524.472C146.106 524.984 144.338 525.24 142.434 525.24ZM141.858 513.72C139.474 513.72 137.386 513.12 135.594 511.92C133.802 510.72 132.402 509.088 131.394 507.024C130.402 504.96 129.906 502.632 129.906 500.04C129.906 497.4 130.41 495.056 131.418 493.008C132.442 490.944 133.874 489.32 135.714 488.136C137.554 486.952 139.714 486.36 142.194 486.36C144.658 486.36 146.73 486.96 148.41 488.16C150.09 489.36 151.362 490.992 152.226 493.056C153.09 495.12 153.522 497.448 153.522 500.04C153.522 502.632 153.082 504.96 152.202 507.024C151.338 509.088 150.042 510.72 148.314 511.92C146.586 513.12 144.434 513.72 141.858 513.72ZM142.914 507.912C144.37 507.912 145.53 507.584 146.394 506.928C147.274 506.272 147.906 505.352 148.29 504.168C148.674 502.984 148.866 501.608 148.866 500.04C148.866 498.472 148.674 497.096 148.29 495.912C147.906 494.728 147.29 493.808 146.442 493.152C145.61 492.496 144.514 492.168 143.154 492.168C141.698 492.168 140.498 492.528 139.554 493.248C138.626 493.952 137.938 494.904 137.49 496.104C137.042 497.288 136.818 498.6 136.818 500.04C136.818 501.496 137.034 502.824 137.466 504.024C137.898 505.208 138.562 506.152 139.458 506.856C140.354 507.56 141.506 507.912 142.914 507.912ZM160.291 524.52L165.283 510.792L165.379 514.824L154.099 487.08H160.867L168.451 506.712H166.915L174.451 487.08H180.979L166.339 524.52H160.291ZM175.711 519.48L176.095 516.744C176.863 516.808 177.487 516.68 177.967 516.36C178.447 516.056 178.775 515.608 178.951 515.016C179.143 514.44 179.183 513.768 179.071 513H175.711V506.472H182.239V513C182.239 515.304 181.703 517.048 180.631 518.232C179.559 519.416 177.919 519.832 175.711 519.48ZM223.548 513V497.688C223.548 495.976 223.14 494.648 222.324 493.704C221.524 492.744 220.412 492.264 218.988 492.264C218.076 492.264 217.284 492.48 216.612 492.912C215.94 493.328 215.412 493.92 215.028 494.688C214.66 495.44 214.476 496.312 214.476 497.304L211.74 495.48C211.74 493.704 212.156 492.136 212.988 490.776C213.836 489.416 214.964 488.36 216.372 487.608C217.796 486.84 219.372 486.456 221.1 486.456C224.06 486.456 226.292 487.336 227.796 489.096C229.316 490.84 230.076 493.128 230.076 495.96V513H223.548ZM192.3 513V487.08H198.06V495.672H198.876V513H192.3ZM207.948 513V497.688C207.948 495.976 207.54 494.648 206.724 493.704C205.924 492.744 204.812 492.264 203.388 492.264C202.028 492.264 200.932 492.736 200.1 493.68C199.284 494.608 198.876 495.816 198.876 497.304L196.14 495.384C196.14 493.688 196.564 492.168 197.412 490.824C198.26 489.48 199.396 488.416 200.82 487.632C202.26 486.848 203.868 486.456 205.644 486.456C207.676 486.456 209.34 486.888 210.636 487.752C211.948 488.616 212.916 489.768 213.54 491.208C214.164 492.648 214.476 494.232 214.476 495.96V513H207.948ZM239.196 513.72C237.34 513.72 235.764 513.368 234.468 512.664C233.188 511.944 232.212 510.992 231.54 509.808C230.884 508.608 230.556 507.288 230.556 505.848C230.556 504.648 230.74 503.552 231.108 502.56C231.476 501.568 232.068 500.696 232.884 499.944C233.716 499.176 234.828 498.536 236.22 498.024C237.18 497.672 238.324 497.36 239.652 497.088C240.98 496.816 242.484 496.56 244.164 496.32C245.844 496.064 247.692 495.784 249.708 495.48L247.356 496.776C247.356 495.24 246.988 494.112 246.252 493.392C245.516 492.672 244.284 492.312 242.556 492.312C241.596 492.312 240.596 492.544 239.556 493.008C238.516 493.472 237.788 494.296 237.372 495.48L231.468 493.608C232.124 491.464 233.356 489.72 235.164 488.376C236.972 487.032 239.436 486.36 242.556 486.36C244.844 486.36 246.876 486.712 248.652 487.416C250.428 488.12 251.772 489.336 252.684 491.064C253.196 492.024 253.5 492.984 253.596 493.944C253.692 494.904 253.74 495.976 253.74 497.16V513H248.028V507.672L248.844 508.776C247.58 510.52 246.212 511.784 244.74 512.568C243.284 513.336 241.436 513.72 239.196 513.72ZM240.588 508.584C241.788 508.584 242.796 508.376 243.612 507.96C244.444 507.528 245.1 507.04 245.58 506.496C246.076 505.952 246.412 505.496 246.588 505.128C246.924 504.424 247.116 503.608 247.164 502.68C247.228 501.736 247.26 500.952 247.26 500.328L249.18 500.808C247.244 501.128 245.676 501.4 244.476 501.624C243.276 501.832 242.308 502.024 241.572 502.2C240.836 502.376 240.188 502.568 239.628 502.776C238.988 503.032 238.468 503.312 238.068 503.616C237.684 503.904 237.396 504.224 237.204 504.576C237.028 504.928 236.94 505.32 236.94 505.752C236.94 506.344 237.084 506.856 237.372 507.288C237.676 507.704 238.1 508.024 238.644 508.248C239.188 508.472 239.836 508.584 240.588 508.584ZM266.173 513.72C263.789 513.72 261.701 513.12 259.909 511.92C258.117 510.72 256.717 509.088 255.709 507.024C254.717 504.96 254.221 502.632 254.221 500.04C254.221 497.4 254.725 495.056 255.733 493.008C256.757 490.944 258.189 489.32 260.029 488.136C261.869 486.952 264.029 486.36 266.509 486.36C268.973 486.36 271.045 486.96 272.725 488.16C274.405 489.36 275.677 490.992 276.541 493.056C277.405 495.12 277.837 497.448 277.837 500.04C277.837 502.632 277.397 504.96 276.517 507.024C275.653 509.088 274.357 510.72 272.629 511.92C270.901 513.12 268.749 513.72 266.173 513.72ZM267.229 507.912C268.685 507.912 269.845 507.584 270.709 506.928C271.589 506.272 272.221 505.352 272.605 504.168C272.989 502.984 273.181 501.608 273.181 500.04C273.181 498.472 272.989 497.096 272.605 495.912C272.221 494.728 271.605 493.808 270.757 493.152C269.925 492.496 268.829 492.168 267.469 492.168C266.013 492.168 264.813 492.528 263.869 493.248C262.941 493.952 262.253 494.904 261.805 496.104C261.357 497.288 261.133 498.6 261.133 500.04C261.133 501.496 261.349 502.824 261.781 504.024C262.213 505.208 262.877 506.152 263.773 506.856C264.669 507.56 265.821 507.912 267.229 507.912ZM273.181 513V495.24H272.365V478.44H278.941V513H273.181ZM293.389 513.72C290.733 513.72 288.389 513.152 286.357 512.016C284.341 510.864 282.757 509.288 281.605 507.288C280.469 505.272 279.901 502.968 279.901 500.376C279.901 497.544 280.461 495.08 281.581 492.984C282.701 490.888 284.245 489.264 286.213 488.112C288.181 486.944 290.445 486.36 293.005 486.36C295.725 486.36 298.037 487 299.941 488.28C301.845 489.56 303.253 491.36 304.165 493.68C305.077 496 305.397 498.728 305.125 501.864H298.669V499.464C298.669 496.824 298.245 494.928 297.397 493.776C296.565 492.608 295.197 492.024 293.293 492.024C291.069 492.024 289.429 492.704 288.373 494.064C287.333 495.408 286.813 497.4 286.813 500.04C286.813 502.456 287.333 504.328 288.373 505.656C289.429 506.968 290.973 507.624 293.005 507.624C294.285 507.624 295.381 507.344 296.293 506.784C297.205 506.224 297.901 505.416 298.381 504.36L304.909 506.232C303.933 508.6 302.389 510.44 300.277 511.752C298.181 513.064 295.885 513.72 293.389 513.72ZM284.797 501.864V497.016H301.981V501.864H284.797ZM318.521 513L309.113 487.08H315.641L321.785 505.032L327.929 487.08H334.457L325.049 513H318.521ZM334.954 483.48V477.72H341.482V483.48H334.954ZM334.954 513V487.08H341.482V513H334.954ZM354.485 513.72C351.221 513.72 348.581 512.984 346.565 511.512C344.565 510.024 343.349 507.928 342.917 505.224L349.589 504.216C349.861 505.432 350.461 506.384 351.389 507.072C352.333 507.76 353.525 508.104 354.965 508.104C356.149 508.104 357.061 507.88 357.701 507.432C358.341 506.968 358.661 506.328 358.661 505.512C358.661 505 358.533 504.592 358.277 504.288C358.021 503.968 357.445 503.656 356.549 503.352C355.669 503.048 354.293 502.648 352.421 502.152C350.309 501.608 348.621 501 347.357 500.328C346.093 499.656 345.181 498.856 344.621 497.928C344.061 496.984 343.781 495.848 343.781 494.52C343.781 492.856 344.205 491.416 345.053 490.2C345.901 488.968 347.093 488.024 348.629 487.368C350.181 486.696 352.005 486.36 354.101 486.36C356.133 486.36 357.933 486.672 359.501 487.296C361.069 487.92 362.333 488.808 363.293 489.96C364.269 491.112 364.869 492.472 365.093 494.04L358.421 495.24C358.309 494.28 357.893 493.52 357.173 492.96C356.453 492.4 355.477 492.072 354.245 491.976C353.045 491.896 352.077 492.056 351.341 492.456C350.621 492.856 350.261 493.432 350.261 494.184C350.261 494.632 350.413 495.008 350.717 495.312C351.037 495.616 351.685 495.928 352.661 496.248C353.653 496.568 355.157 496.984 357.173 497.496C359.141 498.008 360.717 498.608 361.901 499.296C363.101 499.968 363.973 500.784 364.517 501.744C365.061 502.688 365.333 503.832 365.333 505.176C365.333 507.832 364.373 509.92 362.453 511.44C360.533 512.96 357.877 513.72 354.485 513.72ZM366.767 483.48V477.72H373.295V483.48H366.767ZM366.767 513V487.08H373.295V513H366.767ZM388.891 513.72C386.315 513.72 384.163 513.12 382.435 511.92C380.707 510.72 379.403 509.088 378.523 507.024C377.659 504.96 377.227 502.632 377.227 500.04C377.227 497.448 377.659 495.12 378.523 493.056C379.387 490.992 380.659 489.36 382.339 488.16C384.019 486.96 386.091 486.36 388.555 486.36C391.035 486.36 393.195 486.952 395.035 488.136C396.875 489.32 398.299 490.944 399.307 493.008C400.331 495.056 400.843 497.4 400.843 500.04C400.843 502.632 400.339 504.96 399.331 507.024C398.339 509.088 396.947 510.72 395.155 511.92C393.363 513.12 391.275 513.72 388.891 513.72ZM376.123 513V478.44H382.699V495.24H381.883V513H376.123ZM387.835 507.912C389.243 507.912 390.395 507.56 391.291 506.856C392.187 506.152 392.851 505.208 393.283 504.024C393.715 502.824 393.931 501.496 393.931 500.04C393.931 498.6 393.707 497.288 393.259 496.104C392.811 494.904 392.115 493.952 391.171 493.248C390.243 492.528 389.051 492.168 387.595 492.168C386.235 492.168 385.131 492.496 384.283 493.152C383.451 493.808 382.843 494.728 382.459 495.912C382.075 497.096 381.883 498.472 381.883 500.04C381.883 501.608 382.075 502.984 382.459 504.168C382.843 505.352 383.467 506.272 384.331 506.928C385.211 507.584 386.379 507.912 387.835 507.912ZM402.284 513V477.72H408.812V513H402.284ZM423.735 513.72C421.079 513.72 418.735 513.152 416.703 512.016C414.687 510.864 413.103 509.288 411.951 507.288C410.815 505.272 410.247 502.968 410.247 500.376C410.247 497.544 410.807 495.08 411.927 492.984C413.047 490.888 414.591 489.264 416.559 488.112C418.527 486.944 420.791 486.36 423.351 486.36C426.071 486.36 428.383 487 430.287 488.28C432.191 489.56 433.599 491.36 434.511 493.68C435.423 496 435.743 498.728 435.471 501.864H429.015V499.464C429.015 496.824 428.591 494.928 427.743 493.776C426.911 492.608 425.543 492.024 423.639 492.024C421.415 492.024 419.775 492.704 418.719 494.064C417.679 495.408 417.159 497.4 417.159 500.04C417.159 502.456 417.679 504.328 418.719 505.656C419.775 506.968 421.319 507.624 423.351 507.624C424.631 507.624 425.727 507.344 426.639 506.784C427.551 506.224 428.247 505.416 428.727 504.36L435.255 506.232C434.279 508.6 432.735 510.44 430.623 511.752C428.527 513.064 426.231 513.72 423.735 513.72ZM415.143 501.864V497.016H432.327V501.864H415.143ZM436.688 513V506.472H443.216V513H436.688Z" fill="#FBFF12"/>
<line x1="456" y1="500" x2="1435" y2="500" stroke="white" stroke-width="2"/>
<defs>
<linearGradient id="paint0_linear_346_478" x1="720" y1="476.5" x2="720" y2="100" gradientUnits="userSpaceOnUse">
<stop offset="0.139423" stop-color="white"/>
<stop offset="0.929634"/>
</linearGradient>
<clipPath id="clip0_346_478">
<rect width="1440" height="1024" fill="white"/>
</clipPath>
</defs>
</svg>
